FFmpeg version SVN-r25716, Copyright (c) 2000-2010 the FFmpeg developers  built on Nov 10 2010 12:23:18 with gcc 4.1.2 20080704 (Red Hat 4.1.2-48)  configuration: --enable-libmp3lame --enable-shared --disable-mmx --arch=x86_64  libavutil     50.33. 0 / 50.33. 0  libavcore      0.12. 1 /  0.12. 1  libavcodec    52.94. 4 / 52.94. 4  libavformat   52.84. 0 / 52.84. 0  libavdevice   52. 2. 2 / 52. 2. 2  libavfilter    1.59. 0 /  1.59. 0  libswscale     0.12. 0 /  0.12. 0Seems stream 0 codec frame rate differs from container frame rate: 150.00 (150/1) -> 15.00 (15/1)Input #0, mov,mp4,m4a,3gp,3g2,mj2, from '/RAID10/data/converted_video_files/35190.mov':  Duration: 00:00:30.93, start: 0.000000, bitrate: 2211 kb/s    Stream #0.0(eng): Video: cinepak, yuv420p, 372x324, 2210 kb/s, 11.99 fps, 15 tbr, 150 tbn, 150 tbc[buffer @ 0x8a02c0] w:372 h:324 pixfmt:yuv420pOutput #0, flv, to '/RAID10/data/converted_video_files/35190.flv':  Metadata:    encoder         : Lavf52.84.0    Stream #0.0(eng): Video: flv, yuv420p, 372x324, q=2-31, 600 kb/s, 1k tbn, 24 tbcStream mapping:  Stream #0.0 -> #0.0Press [q] to stop encodingframe=   96 fps=  0 q=15.5 size=     555kB time=8.04 bitrate= 565.2kbits/s    frame=  189 fps=182 q=10.7 size=     942kB time=15.75 bitrate= 490.2kbits/s    frame=  280 fps=181 q=11.6 size=    1435kB time=23.25 bitrate= 505.7kbits/s    frame=  368 fps=180 q=9.6 size=    1929kB time=30.71 bitrate= 514.7kbits/s    frame=  371 fps=177 q=9.4 Lsize=    1946kB time=30.92 bitrate= 515.6kbits/s    video:1940kB audio:0kB global headers:0kB muxing overhead 0.309382%